<svg id="Layer_1" data-name="Layer 1" xmlns="http://www.w3.org/2000/svg" viewBox="0 0 380.85 391.54"><defs><style>.cls-1{fill:#036;}.cls-2{fill:#4b9cd3;}.cls-3{fill:#c00;}.cls-4{fill:#ff3715;}.cls-5{fill:#fff;}.cls-6{fill:none;stroke:#fff;stroke-miterlimit:10;stroke-width:3px;}</style></defs><title>Logo</title><path class="cls-1" d="M333.18,381.53c-.73-15.61,4.54-50.05,4.54-50.05h-12s-3.27,2.42,1.43,12.28c3.92,8.22,1.8,23.14,0,37.75-2.3,18.32-3.14,19.77-3.19,24.85-.08,7.76,4.09,13,8.06,13,4.49,0,5.4-4.5,4.86-13.59C336.5,399.7,333.78,394.3,333.18,381.53Z" transform="translate(-200.53 -94.88)"/><path class="cls-2" d="M312.63,300H469.29a10.63,10.63,0,0,0,9.21-5.32l48.72-84.39A10.63,10.63,0,0,0,518,194.35H263.9a10.63,10.63,0,0,0-9.21,15.95l48.72,84.39A10.63,10.63,0,0,0,312.63,300Z" transform="translate(-200.53 -94.88)"/><path class="cls-1" d="M401.48,436.41,464.9,326.56a12.15,12.15,0,0,0-10.53-18.23H327.54A12.15,12.15,0,0,0,317,326.56l63.42,109.85A12.15,12.15,0,0,0,401.48,436.41Z" transform="translate(-200.53 -94.88)"/><path class="cls-3" d="M540.72,178.58h0l39.25-68a10.48,10.48,0,0,0-9.08-15.72H211A10.48,10.48,0,0,0,202,110.6l40.51,70.17a10.48,10.48,0,0,0,9.08,5.24H530.38a10.48,10.48,0,0,0,9.08-5.24l1.27-2.19Z" transform="translate(-200.53 -94.88)"/><line class="cls-4" x1="337.05" y1="104.47" x2="336.47" y2="104.47"/><line class="cls-4" x1="44.38" y1="104.47" x2="43.8" y2="104.47"/><line class="cls-4" x1="336.47" y1="104.47" x2="335.9" y2="104.47"/><path class="cls-4" d="M241.28,192.06l-.17-.29Z" transform="translate(-200.53 -94.88)"/><path class="cls-5" d="M337.74,119.48H310.26q3.07,22.83,6.15,45.66c.35,2.63-.38,4.58-2.15,5.85A12.28,12.28,0,0,1,307,172.9a15.88,15.88,0,0,1-8-1.93,8.43,8.43,0,0,1-4.2-5.83q-4.79-22.83-9.57-45.66c-11,0-16.92.61-27.09-.82-4-.56-7.26-1.59-9.26-2s-2.8-.8-2.65-2,1.19-3,3.49-4.38,5.83-1.45,9.9-1.4c26.47.16,52.95.07,79.42.07,4.32,0,7.45.4,9.43,1.31s2.89,2.17,2.72,3.81-1.39,3-3.63,4S342,119.48,337.74,119.48Z" transform="translate(-200.53 -94.88)"/><path class="cls-5" d="M396.06,145h-8.15l-2.12,20.19a7.36,7.36,0,0,1-3.56,5.87,14.84,14.84,0,0,1-7.81,1.89c-3.38,0-6-.66-7.76-2a6.45,6.45,0,0,1-2.63-5.79c.48-16.14.64-32.34,1.66-48.46a7.15,7.15,0,0,1,4.22-6.13c2.51-1.17,6.42-1.67,11.81-1.67h40.66q8.42,0,14.48.31A76.58,76.58,0,0,1,448,110.54a38.38,38.38,0,0,1,10.69,3.61,12,12,0,0,1,5.59,5.61,8.83,8.83,0,0,1,.17,6.49c-1.56,4.69-5.35,8.43-11.16,11.23s-13.78,4.79-23.93,6a33.36,33.36,0,0,1,10.42,5.32,40.54,40.54,0,0,1,7.64,7.48,30.64,30.64,0,0,1,4.27,7.16c.84,2.13,1.1,3.59.83,4.39a5.4,5.4,0,0,1-2.17,2.46,13.91,13.91,0,0,1-4.25,1.93,20.26,20.26,0,0,1-5.5.71,13.56,13.56,0,0,1-5.71-1,10.55,10.55,0,0,1-3.51-2.55c-.91-1-2.11-2.54-3.67-4.54-2.64-3.39-4-5.09-6.86-8.49a38.66,38.66,0,0,0-7.29-7.12,20.65,20.65,0,0,0-7.37-3.34A46.59,46.59,0,0,0,396.06,145Zm18-26.42h-23.3c-1.16,7.06-1.13,10.39-1.86,17.3h21.47A115.82,115.82,0,0,0,425,135a29,29,0,0,0,9.69-2.7,8.24,8.24,0,0,0,4.49-5.25,4.45,4.45,0,0,0-1.43-4.61,14,14,0,0,0-6.55-3Q427,118.54,414,118.53Z" transform="translate(-200.53 -94.88)"/><path class="cls-5" d="M473,165.14c6.72-16.51,13.59-33,19.85-49.65.36-2.74.83-4.7,2.6-5.86s4.28-1.63,7.91-1.63,7.41.17,10.14,1.94,4.21,4.38,3.75,6.85c-7.41,15.06-16.49,29.43-24.88,44-1.33,2.3-2.71,4.88-4.55,7.52s-4.31,4.64-7.49,4.64-5.26-.65-6.71-2S471.93,167.71,473,165.14Z" transform="translate(-200.53 -94.88)"/><path class="cls-2" d="M278.6,216.27a8.4,8.4,0,0,1-4.11-.83,3.71,3.71,0,0,1-2.3-3.67,7.17,7.17,0,0,1,2.43-4.61,8.81,8.81,0,0,1,4.32-2.59,2.31,2.31,0,0,1,2.75,1.15c.5,1,.32,2.47.19,4.57a16.46,16.46,0,0,1-.57,4.64C280.85,215.94,279.92,216.22,278.6,216.27Zm11.25,13.47,17.59,36.38a45.28,45.28,0,0,1,2.09,4.75c.19.63,0,.41-.69-.61s-1.57-2.47-2.73-4.25-2.46-3.69-3.85-5.82L281.84,229c-1.41-2.16-2.19-3.87-2.21-5.15a1.75,1.75,0,0,1,2-2A7.28,7.28,0,0,1,286,224.2,19.11,19.11,0,0,1,289.84,229.74Z" transform="translate(-200.53 -94.88)"/><path class="cls-5" d="M331.45,217.37h-26l5.32,19.11h22.49a5.25,5.25,0,0,1,4,1.62,8.25,8.25,0,0,1,2,4.27,6.78,6.78,0,0,1-.37,4.33,3.3,3.3,0,0,1-3.26,1.67H314l6.17,22.14h22.28a4.61,4.61,0,0,1,3.7,1.73,9.57,9.57,0,0,1,1.93,4.59,7.67,7.67,0,0,1-.32,4.49,2.92,2.92,0,0,1-2.92,1.73c-9.88,0-15.33,2.17-24.66-.37-1.87-.51-3.2-2.07-4.33-4a47.81,47.81,0,0,1-3.34-7.9c-6.44-18.76-13.21-37.45-19.17-56.37a8,8,0,0,1,1-5.56,7.34,7.34,0,0,1,3.4-2.89,11,11,0,0,1,4.43-.84h30.08c1.82,0,3,.47,3.59,1.52a7.6,7.6,0,0,1,.64,4.38,9.83,9.83,0,0,1-1.26,4.67A4.17,4.17,0,0,1,331.45,217.37Z" transform="translate(-200.53 -94.88)"/><path class="cls-5" d="M384.91,274.24c-1-3.91-1.49-5.86-2.54-9.77H362.72c-.49,4-.72,6-1.14,10a50.25,50.25,0,0,1-1.22,7.89,2.57,2.57,0,0,1-2.63,2c-1.14,0-2.24-.73-3.34-2.18a10.83,10.83,0,0,1-2.09-4.94,17.65,17.65,0,0,1-.2-3.29c0-1.13.14-2.71.34-4.73,1.56-17,4-33.76,6.92-50.55.26-1.45.56-3.24,1.13-5.4a20.56,20.56,0,0,1,2.11-5.24,8.78,8.78,0,0,1,3-3,7.64,7.64,0,0,1,4.09-1,6.24,6.24,0,0,1,3.81,1,7.48,7.48,0,0,1,2.35,3,30.19,30.19,0,0,1,1.56,4.34c.45,1.59,1.09,3.73,1.88,6.24,5.37,16.61,10.13,33.28,14.32,50.23a36.89,36.89,0,0,1,1.32,8.34,9.94,9.94,0,0,1-1.39,5c-.89,1.5-1.93,2.26-3.14,2.26a2.71,2.71,0,0,1-1.83-.66,5.37,5.37,0,0,1-1.31-1.81,23.52,23.52,0,0,1-1.19-3.5Q385.4,276,384.91,274.24Zm-20.78-21.61h15.1c-3.13-10.79-6.41-21.45-9.9-32.12C367.4,231.2,365.67,241.86,364.12,252.63Z" transform="translate(-200.53 -94.88)"/><path class="cls-5" d="M434.32,218.22H421.74L416,274.77a17.22,17.22,0,0,1-2,7.25c-1,1.57-2.13,2.36-3.45,2.36s-2.37-.8-3.11-2.39-1-4-.82-7.22l3.57-56.55H397.66a5.16,5.16,0,0,1-4.37-1.79,7.9,7.9,0,0,1-1.44-4.94,7,7,0,0,1,1.48-4.81,5.36,5.36,0,0,1,4.26-1.59h36.22a6.39,6.39,0,0,1,6.9,6.4,6.53,6.53,0,0,1-1.69,4.94A6.13,6.13,0,0,1,434.32,218.22Z" transform="translate(-200.53 -94.88)"/><path class="cls-5" d="M475.41,256.45a127.73,127.73,0,0,1-5.85,13.32c-2.25,4.43-4.78,8.53-8,11.19a15.57,15.57,0,0,1-10.44,3.41c-4.4,0-7.71-1.45-10-4.35a19.42,19.42,0,0,1-3.49-8.36,27.39,27.39,0,0,1-.2-10.17,10.62,10.62,0,0,1,2.14-4.91,4.69,4.69,0,0,1,3.64-2,2.54,2.54,0,0,1,2.4,1.59,12.23,12.23,0,0,1,.89,4.73,38.67,38.67,0,0,0,.66,6.21,8.31,8.31,0,0,0,2,4.11,6,6,0,0,0,4.57,1.62,11.24,11.24,0,0,0,7.75-3.27,17.59,17.59,0,0,0,5-8.23c.74-2.58.86-4.61.29-6.22a6.84,6.84,0,0,0-2.94-3.69A38.14,38.14,0,0,0,458,248.7a30.38,30.38,0,0,1-8.28-4.59,14.56,14.56,0,0,1-4.66-7.17,23.82,23.82,0,0,1-.24-11.28,38.28,38.28,0,0,1,4.48-11.54c1.91-3.52,3.83-6.16,6.51-7.82s6-2.33,10.25-2.33a29.65,29.65,0,0,1,9.75,1.51,21.59,21.59,0,0,1,7.86,4.51c2,2,3.26,4.07,3.36,6.17a15.67,15.67,0,0,1-1,6,15.94,15.94,0,0,1-3,5.1c-1.36,1.6-2.67,2.52-4,2.67a2.13,2.13,0,0,1-2.44-1.12,14.17,14.17,0,0,1-.9-4.37,16,16,0,0,0-1.79-6.87c-1-1.64-3.26-2.54-6.5-2.54a12,12,0,0,0-7.77,2.76,11.13,11.13,0,0,0-4.13,6.45,7.92,7.92,0,0,0,0,4,6.74,6.74,0,0,0,1.82,2.92,10.7,10.7,0,0,0,2.71,1.91c.95.46,2.55,1.18,4.73,2a55.27,55.27,0,0,1,7.27,3.39,14,14,0,0,1,4.61,3.76,7.7,7.7,0,0,1,1.13,5.37A37,37,0,0,1,475.41,256.45Z" transform="translate(-200.53 -94.88)"/><path class="cls-2" d="M503.28,216.28c-1.37-.07-2.34-.33-2.8-1.32s-.44-2.59-.58-4.66a10.09,10.09,0,0,1,.29-4.43A2.22,2.22,0,0,1,503,204.6a8.82,8.82,0,0,1,4.13,2.44,7.13,7.13,0,0,1,2.5,4.73,3.72,3.72,0,0,1-2.27,3.66A7.94,7.94,0,0,1,503.28,216.28Zm-3.14,12.38-20.61,31.52c-1.43,2.18-2.74,4.11-3.9,5.9s-2.07,3.23-2.73,4.25-.86,1.21-.64.53a48.67,48.67,0,0,1,2.09-4.74l17.41-36a20.94,20.94,0,0,1,4-5.91,7.18,7.18,0,0,1,4.34-2.39,1.78,1.78,0,0,1,2,2C502.11,225.1,501.41,226.72,500.14,228.66Z" transform="translate(-200.53 -94.88)"/><path class="cls-6" d="M390.91,341.77c-2.47,0-6.35-2.31-10.76-3s-13.49,3.29-13.49,3.29-14.38,7.09-19.05,9.11a11.11,11.11,0,0,0-6,6.27h98.6a11.11,11.11,0,0,0-6-6.27c-4.67-2-19.05-9.11-19.05-9.11s-9.08-4-13.49-3.29-8.29,3-10.76,3" transform="translate(-200.53 -94.88)"/><path class="cls-6" d="M376.42,357.43v11.51s-.79,14.07,14,14.07" transform="translate(-200.53 -94.88)"/><path class="cls-6" d="M404.47,357.43v11.51s.79,14.07-14,14.07" transform="translate(-200.53 -94.88)"/><line class="cls-6" x1="189.91" y1="262.55" x2="189.91" y2="273.07"/><path class="cls-6" d="M340.56,357.6c10.74,8.08,24.13,13.68,36.79,16.83" transform="translate(-200.53 -94.88)"/><path class="cls-6" d="M441.36,357.83c-8.64,6.17-19.2,10.92-29.24,14.26a83.84,83.84,0,0,1-8.55,2.35" transform="translate(-200.53 -94.88)"/><path class="cls-3" d="M568.16,171c-2.6-19.38,6.44-61.67,6.44-61.67h-17A110,110,0,0,0,562,126.52c3.6,10.78,3.44,26.93.62,44.52-3.61,22.53-7.55,24.33-7.62,30.58-.12,9.56,5.81,16,11.44,16,6.38,0,13.45-5.81,12.69-17C578.65,193.17,570.26,186.69,568.16,171Z" transform="translate(-200.53 -94.88)"/><path class="cls-2" d="M496.82,295c-.89-7.64-3.72-20.07-.81-30,3.34-11.39,2.3-20.28.6-20.06h-12a100.64,100.64,0,0,0,3.14,13.92c2.54,8.75.3,21.74-1.69,36-2.54,18.29-3.19,19.87-3.25,24.95-.08,7.76,4.09,13,8.06,13,4.49,0,9.47-4.72,8.94-13.8C499.46,313,498.3,307.7,496.82,295Z" transform="translate(-200.53 -94.88)"/><path class="cls-2" d="M281.41,266.44c-6-14.65,2.34-50.12,2.34-50.12h-12a100.64,100.64,0,0,0,3.14,13.92c2.54,8.75,2.42,21.86.44,36.14-2.54,18.29-1.66,8.42-1.72,13.5-.08,7.76,2.09,14,5.79,12.63,2-.79,3.92-3.1,4.34-11.83C284,274.61,283.57,271.72,281.41,266.44Z" transform="translate(-200.53 -94.88)"/><path class="cls-1" d="M406.54,448.61c-1.83-15.73,4.54-50.05,4.54-50.05h-12a100.64,100.64,0,0,0,3.14,13.92c2.54,8.75,2.42,21.86.44,36.14-2.54,18.29-5.32,19.75-5.37,24.82-.08,7.76,4.09,13,8.06,13,4.49,0,9.47-4.72,8.94-13.8C413.93,466.56,408,461.31,406.54,448.61Z" transform="translate(-200.53 -94.88)"/><path class="cls-3" d="M209.49,122.75c13.07,21.25,10.7,27.17,9.92,33.38-1.58,12.54,2.38,21.25,8,21.25,6.38,0,15.89-12.56,15.13-23.75-.51-7.46-6.15-2.23-8.25-17.87-2.6-19.38-8.18-29.84-8.18-29.84l-18.55,6.62A13.62,13.62,0,0,0,209.49,122.75Z" transform="translate(-200.53 -94.88)"/></svg>